<?xml version="1.0" standalone="no"?>
<!DOCTYPE svg PUBLIC "-//W3C//DTD SVG 20010904//EN"
 "http://www.w3.org/TR/2001/REC-SVG-20010904/DTD/svg10.dtd">
<svg version="1.0" xmlns="http://www.w3.org/2000/svg"
 width="260.000000pt" height="260.000000pt" viewBox="0 0 260.000000 260.000000"
 preserveAspectRatio="xMidYMid meet">
<metadata>
Created by potrace 1.11, written by Peter Selinger 2001-2013
</metadata>
<g transform="translate(0.000000,260.000000) scale(0.100000,-0.100000)"
fill="#000000" stroke="none">
<path d="M0 1300 l0 -1300 1300 0 1300 0 0 1300 0 1300 -1300 0 -1300 0 0
-1300z m1695 775 c22 -8 53 -15 68 -15 16 0 40 -9 54 -20 41 -32 98 -27 133
11 23 26 33 30 54 25 43 -11 42 -6 73 -432 4 -46 1 -63 -11 -73 -23 -19 -42
-7 -56 36 -7 21 -20 47 -30 58 -9 11 -25 41 -35 67 -12 32 -42 73 -94 126 -63
66 -84 81 -126 92 -27 8 -63 23 -78 34 -25 18 -43 21 -146 21 -100 0 -121 -3
-146 -20 -17 -11 -53 -27 -82 -36 -88 -28 -202 -145 -234 -239 -7 -19 -17 -42
-24 -50 -47 -57 -74 -399 -45 -585 29 -190 174 -387 314 -427 23 -6 46 -15 51
-19 30 -21 127 -39 214 -39 86 0 103 3 156 29 33 16 72 32 87 36 15 4 43 21
63 38 81 72 145 139 159 166 17 31 38 44 61 35 27 -11 17 -59 -20 -104 -19
-23 -35 -45 -35 -49 0 -8 -28 -40 -93 -109 -46 -49 -140 -111 -200 -132 -29
-10 -70 -26 -92 -35 -34 -15 -66 -17 -220 -13 -164 4 -184 6 -224 27 -24 12
-62 28 -85 35 -45 14 -156 81 -156 95 0 5 -18 20 -40 35 -44 29 -105 106 -144
183 -14 28 -30 54 -35 57 -5 3 -12 23 -15 43 -4 21 -19 69 -33 106 -24 65 -25
75 -21 225 4 132 9 169 31 237 27 88 79 189 143 281 42 60 147 160 194 184 14
7 34 20 45 30 11 9 29 20 40 23 11 3 65 22 120 41 99 35 102 35 260 35 114 0
172 -4 200 -14z"/>
</g>
</svg>
